# xmcd
#
# Track frame offsets:
#	150
#	15528
#	37280
#	54004
#	74099
#	90749
#	105707
#	121355
#	141546
#	158507
#	178833
#	194974
#
# Disc length: 2838 seconds
#
# Revision: 1
# Processed by: cddbd v1.5.2PL0 Copyright (c) Steve Scherf et al.
# Submitted via: audiograbber 1.83.01
#
DISCID=b30b140c
DTITLE=Tom Dickins - A Brief Case of Madness
DYEAR=2013
DGENRE=Easy Listening
TTITLE0=O Jordan
TTITLE1=Celluloid Girl
TTITLE2=Swollen Pride
TTITLE3=Sad For The Weather
TTITLE4=The Itch
TTITLE5=Green Paper Heart
TTITLE6=Ocean Today
TTITLE7=Miss You Already
TTITLE8=Without Exit Strategy
TTITLE9=Half Full Of Ourselves
TTITLE10=Dream Of Waking Up
TTITLE11=Dusty Stars
EXTD=
EXTT0=
EXTT1=
EXTT2=
EXTT3=
EXTT4=
EXTT5=
EXTT6=
EXTT7=
EXTT8=
EXTT9=
EXTT10=
EXTT11=
PLAYORDER=
